Coordinates
version=1
nRows=14
nColumns=40
inDegrees=yes

Units are S.I. units (second, meters, Newtons, ...)
Angles are in degrees.

endheader
time	pelvis_tilt	pelvis_list	pelvis_rotation	pelvis_tx	pelvis_ty	pelvis_tz	hip_flexion_r	hip_adduction_r	hip_rotation_r	knee_angle_r	knee_angle_r_beta	ankle_angle_r	subtalar_angle_r	mtp_angle_r	hip_flexion_l	hip_adduction_l	hip_rotation_l	knee_angle_l	knee_angle_l_beta	ankle_angle_l	subtalar_angle_l	mtp_angle_l	lumbar_extension	lumbar_bending	lumbar_rotation	arm_flex_r	arm_add_r	arm_rot_r	elbow_flex_r	pro_sup_r	wrist_flex_r	wrist_dev_r	arm_flex_l	arm_add_l	arm_rot_l	elbow_flex_l	pro_sup_l	wrist_flex_l	wrist_dev_l
      0.00000000	      0.77299740	      3.80599756	     -2.45766539	     -0.99597296	      0.93838023	     -0.93571162	    -10.45092079	     -4.98193762	    -18.51726648	    -15.24905458	     -0.26614621	     12.81413063	      8.16235778	    -16.81578127	     21.95624711	      5.07661200	     17.75843383	    -12.44924394	     -0.21728030	     -4.72425961	     -1.33083660	      1.00904006	     -7.81221750	     -5.06044999	      4.99560898	     12.98801334	    -10.63824092	     -1.80801807	     31.28157955	     89.95437384	      0.00000000	      0.00000000	     -8.54794666	     12.42367319	     21.42379302	     13.28634577	     89.95437384	      0.00000000	      0.00000000
      0.01000000	      0.67011652	      3.71710969	     -2.67298811	     -0.98713147	      0.93720493	     -0.93828495	    -10.81974163	     -5.19375981	    -18.42417684	    -15.42199778	     -0.26916464	     12.81074370	      8.08121175	    -16.66328942	     21.91557366	      5.06821683	     17.76359785	    -12.71328425	     -0.22188867	     -4.64203556	     -1.14353116	      0.99103267	     -7.55355921	     -5.00057132	      5.15231989	     12.62754903	    -10.60080684	     -1.75239285	     31.03515428	     89.95437384	      0.00000000	      0.00000000	     -8.55673585	     12.38765380	     21.36588769	     13.26471440	     89.95437384	      0.00000000	      0.00000000
      0.02000000	      0.54441483	      3.65748647	     -2.78953283	     -0.97821289	      0.93595828	     -0.94112993	    -11.03025424	     -5.44205143	    -18.12117384	    -15.90567379	     -0.27760638	     12.55293420	      7.86727849	    -16.35564011	     21.94555165	      4.99100144	     17.55796137	    -13.18042840	     -0.23004187	     -4.61415639	     -1.00916228	      0.97020875	     -7.29834466	     -4.97150766	      5.13902687	     12.14944081	    -10.58271314	     -1.73350391	     30.99210046	     89.95437384	      0.00000000	      0.00000000	     -8.73311002	     12.33452981	     21.29483826	     13.50299884	     89.95437384	      0.00000000	      0.00000000
      0.03000000	      1.22233444	      4.24584564	     -3.35728083	     -0.96822322	      0.93617309	     -0.94391256	    -12.22929428	     -6.76262135	    -18.68154949	    -16.17197159	     -0.28225415	     12.53276033	      9.92360007	    -16.94820963	     20.69797948	      4.19854341	     18.23089000	    -13.29948190	     -0.23211975	     -4.14597920	      0.16013038	      0.79492369	     -7.77595727	     -5.71912640	      5.44677840	     12.07529132	    -10.42309414	     -1.68206653	     30.12207336	     89.95437384	      0.00000000	      0.00000000	     -8.53187140	     12.34230634	     21.49549024	     13.10294185	     89.95437384	      0.00000000	      0.00000000
      0.04000000	      1.20264442	      4.25210316	     -3.60992894	     -0.95862317	      0.93526959	     -0.94680978	    -12.50963086	     -7.18141170	    -18.41878682	    -16.72110938	     -0.29183841	     12.40599548	      9.74414267	    -16.76022390	     20.43633386	      4.05958922	     18.28903363	    -13.78406468	     -0.24057731	     -3.95781578	      0.51491757	      0.72578798	     -7.52267279	     -5.76743838	      5.56658694	     11.64341840	    -10.36708535	     -1.65015547	     29.74117086	     89.95437384	      0.00000000	      0.00000000	     -8.60441819	     12.29547323	     21.45147324	     13.10378641	     89.95437384	      0.00000000	      0.00000000
      0.05000000	      1.30262385	      4.36567423	     -3.91089117	     -0.94889498	      0.93462844	     -0.94980827	    -12.90120872	     -7.78403244	    -18.16733096	    -17.31726199	     -0.30224324	     12.00613856	      9.82352697	    -16.60463733	     19.96586603	      3.79082053	     18.43491129	    -14.20510000	     -0.24792577	     -4.24057636	      0.97341202	      0.71974293	     -7.40715775	     -5.95060914	      5.69725724	     11.29753993	    -10.32539766	     -1.54589689	     29.18066902	     89.95437384	      0.00000000	      0.00000000	     -8.61276365	     12.24290493	     21.42667385	     13.02323349	     89.95437384	      0.00000000	      0.00000000
      0.06000000	      1.42419615	      4.52754671	     -4.14053706	     -0.93909601	      0.93417546	     -0.95306256	    -13.20213453	     -8.44781460	    -17.87574534	    -18.12060769	     -0.31626427	     11.62366235	      9.69829650	    -16.38947926	     19.56052409	      3.50879274	     18.74629745	    -14.68583634	     -0.25631620	     -5.77200935	      1.51913942	      0.96067112	     -7.31896839	     -6.18131333	      5.80729347	     10.94940256	    -10.29785518	     -1.66678696	     28.59980559	     89.95437384	      0.00000000	      0.00000000	     -8.64239156	     12.18354438	     21.43612607	     13.14845957	     89.95437384	      0.00000000	      0.00000000
      0.07000000	      1.63029950	      4.94567842	     -4.38911359	     -0.92933805	      0.93417195	     -0.95667551	    -13.40187526	     -9.47580076	    -17.46487204	    -19.28854589	     -0.33664863	     10.94851620	      9.61732871	    -16.19771153	     18.97625899	      2.89491492	     19.15620557	    -14.80330096	     -0.25836634	     -7.31722249	      1.83925302	      1.13185084	     -7.33471970	     -6.66633898	      5.83618765	     10.72706732	    -10.22941470	     -1.68341633	     27.80092176	     89.95437384	      0.00000000	      0.00000000	     -8.50324472	     12.13398727	     21.37740813	     12.97152284	     89.95437384	      0.00000000	      0.00000000
      0.08000000	      1.93442358	      6.06352693	     -4.83913828	     -0.91885082	      0.93444759	     -0.96053995	    -13.55122192	    -11.56397878	    -17.76555272	    -20.72493157	     -0.36171829	     10.62698736	     10.61534471	    -16.43400191	     18.03239366	      1.40335477	     19.31926788	    -14.37163105	     -0.25083228	     -7.93368376	      2.49409848	      0.40548557	     -7.30657296	     -7.96044951	      6.00400853	     10.19410226	     -9.99998577	     -2.25670804	     27.31608542	     89.95437384	      0.00000000	      0.00000000	     -8.56230534	     12.13229702	     21.46667674	     13.17885819	     89.95437384	      0.00000000	      0.00000000
      0.09000000	      2.08912824	      6.33928467	     -4.88533323	     -0.90887409	      0.93479309	     -0.96449116	    -13.64528960	    -12.41368578	    -17.53015653	    -21.97854195	     -0.38359792	      9.65131624	     10.30597768	    -16.04293341	     17.85097070	      1.02542395	     19.38897333	    -15.37496343	     -0.26834373	     -7.58730016	      2.87486266	      0.10716145	     -7.26072312	     -8.27196578	      5.82873905	      9.80768603	     -9.96990696	     -2.18015157	     26.65544492	     89.95437384	      0.00000000	      0.00000000	     -8.43235590	     12.06694249	     21.19084681	     13.02399759	     89.95437384	      0.00000000	      0.00000000
      0.10000000	      1.98259252	      7.31797360	     -4.95794167	     -0.89895927	      0.93479314	     -0.96931053	    -13.04049817	    -14.38344396	    -17.91503742	    -24.06255401	     -0.41997079	      8.79573742	     11.59669347	    -16.50262253	     17.79728382	     -0.43819376	     18.53942964	    -15.97450199	     -0.27880766	     -7.47200672	      4.77707093	     -2.00858029	     -6.86930485	     -9.27855193	      5.68920501	      9.30148430	     -9.81592854	     -2.94369424	     26.09758723	     89.95437384	      0.00000000	      0.00000000	     -8.39635898	     12.04755226	     20.64770943	     13.11475934	     89.95437384	      0.00000000	      0.00000000
      0.11000000	      2.11227159	      7.51621922	     -4.91186056	     -0.88873575	      0.93556087	     -0.97329387	    -12.85864627	    -15.13309060	    -17.59891887	    -25.70702081	     -0.44867215	      7.37222876	     10.83265566	    -15.87208532	     17.56271203	     -0.89293303	     18.00665732	    -17.07100377	     -0.29794522	     -6.58280200	      4.54710054	     -2.27089942	     -6.81232008	     -9.49771511	      5.50631419	      8.81604817	     -9.84285127	     -2.90190383	     25.44770027	     89.95437384	      0.00000000	      0.00000000	     -8.18384782	     11.98691622	     20.28559021	     12.97318361	     89.95437384	      0.00000000	      0.00000000
      0.12000000	      2.14502023	      7.81676041	     -4.87813466	     -0.87860989	      0.93632216	     -0.97762074	    -12.36277325	    -16.11105612	    -17.48148459	    -27.64910537	     -0.48256792	      5.55969086	     10.16287063	    -15.17645240	     17.33540067	     -1.56159100	     17.32223143	    -17.88699472	     -0.31218695	     -5.72330323	      4.44849722	     -2.50570738	     -6.61377211	     -9.77467199	      5.32363018	      8.24115186	     -9.86585973	     -3.13479623	     24.94553787	     89.95437384	      0.00000000	      0.00000000	     -7.98499010	     11.91402887	     19.77673118	     12.87626308	     89.95437384	      0.00000000	      0.00000000
      0.13000000	      1.79879501	      8.94380285	     -4.76044834	     -0.86859666	      0.93663127	     -0.98281256	    -11.01236777	    -18.28385509	    -17.84276807	    -30.44878143	     -0.53143149	      3.96915534	     10.59447577	    -14.67574197	     17.24036965	     -3.54277186	     15.62509857	    -17.79556261	     -0.31059116	     -5.34576280	      7.14658837	     -2.63731449	     -5.92062816	    -10.89008053	      5.19547277	      7.60931941	     -9.69851698	     -4.21438795	     24.24321517	     89.95437384	      0.00000000	      0.00000000	     -7.80689577	     11.99266884	     18.38785680	     12.89568740	     89.95437384	      0.00000000	      0.00000000
